<svg xmlns="http://www.w3.org/2000/svg" viewBox="0 0 100 100">
  <defs>
    <linearGradient id="grad" x1="0%" y1="0%" x2="100%" y2="100%">
      <stop offset="0%" style="stop-color:#8b5cf6;stop-opacity:1" />
      <stop offset="100%" style="stop-color:#6366f1;stop-opacity:1" />
    </linearGradient>
    <linearGradient id="surface" x1="0%" y1="100%" x2="100%" y2="0%">
      <stop offset="0%" style="stop-color:#3b82f6;stop-opacity:1" />
      <stop offset="50%" style="stop-color:#22c55e;stop-opacity:1" />
      <stop offset="100%" style="stop-color:#ef4444;stop-opacity:1" />
    </linearGradient>
  </defs>
  <rect width="100" height="100" rx="20" fill="url(#grad)"/>
  <!-- Surface grid -->
  <path d="M15 70 L35 55 L55 50 L75 55 L85 60" stroke="url(#surface)" stroke-width="3" fill="none" stroke-linecap="round"/>
  <path d="M15 60 L35 45 L55 38 L75 42 L85 48" stroke="url(#surface)" stroke-width="3" fill="none" stroke-linecap="round" opacity="0.8"/>
  <path d="M15 50 L35 35 L55 25 L75 30 L85 38" stroke="url(#surface)" stroke-width="3" fill="none" stroke-linecap="round" opacity="0.6"/>
  <!-- Vertical lines -->
  <path d="M35 55 L35 35" stroke="#f9fafb" stroke-width="1" opacity="0.3"/>
  <path d="M55 50 L55 25" stroke="#f9fafb" stroke-width="1" opacity="0.3"/>
  <path d="M75 55 L75 30" stroke="#f9fafb" stroke-width="1" opacity="0.3"/>
  <!-- Axes -->
  <path d="M15 75 L85 75" stroke="#f9fafb" stroke-width="2" opacity="0.5"/>
  <path d="M15 75 L15 20" stroke="#f9fafb" stroke-width="2" opacity="0.5"/>
  <!-- Labels -->
  <text x="88" y="78" font-size="10" fill="#f9fafb" opacity="0.7">K</text>
  <text x="12" y="18" font-size="10" fill="#f9fafb" opacity="0.7">IV</text>
</svg>
